<?xml version="1.0" encoding="utf-8"?>
<!-- Generator: Adobe Illustrator 16.0.0, SVG Export Plug-In . SVG Version: 6.00 Build 0)  -->
<!DOCTYPE svg PUBLIC "-//W3C//DTD SVG 1.1//EN" "http://www.w3.org/Graphics/SVG/1.1/DTD/svg11.dtd">
<svg version="1.1" id="Layer_1" xmlns="http://www.w3.org/2000/svg" xmlns:xlink="http://www.w3.org/1999/xlink" x="0px" y="0px"
	 width="32.014px" height="31.591px" viewBox="4.327 3.62 32.014 31.591" enable-background="new 4.327 3.62 32.014 31.591"
	 xml:space="preserve">
<g>
	<g>
		<polygon fill="#F6ED62" points="6.327,34.211 5.327,33.211 5.327,5.62 6.327,4.62 34.341,4.62 35.341,5.62 35.341,33.211 
			34.341,34.211 		"/>
		<path fill="#F6ED62" d="M34.341,5.62v27.591H6.327V5.62H34.341 M34.341,3.62H6.327l-2,2v27.591l2,2h28.014l2-2V5.62L34.341,3.62
			L34.341,3.62z"/>
	</g>
	
		<line fill="none" stroke="#6D6E70" stroke-width="2" stroke-linecap="square" stroke-linejoin="bevel" stroke-miterlimit="10" x1="30.58" y1="29.277" x2="10.194" y2="8.892"/>
	
		<line fill="none" stroke="#929497" stroke-width="2" stroke-linecap="square" stroke-linejoin="bevel" stroke-miterlimit="10" x1="30.58" y1="22.155" x2="17.315" y2="8.892"/>
	
		<line fill="none" stroke="#BBBDBF" stroke-width="2" stroke-linecap="square" stroke-linejoin="bevel" stroke-miterlimit="10" x1="30.58" y1="14.837" x2="24.632" y2="8.892"/>
	<g>
		<polygon fill="#404041" points="8.717,30.396 11.912,18.467 12.749,18.242 21.483,26.976 21.259,27.813 9.329,31.008 		"/>
		<path fill="#404041" d="M12.395,18.596l8.733,8.732L9.2,30.524L12.395,18.596 M13.102,17.889l-1.673,0.448L8.234,30.266
			l1.225,1.225l11.93-3.195l0.448-1.672L13.102,17.889L13.102,17.889z"/>
	</g>
</g>
</svg>
