<?xml version="1.0" encoding="utf-8"?>
<!-- Generator: Adobe Illustrator 16.0.0, SVG Export Plug-In . SVG Version: 6.00 Build 0)  -->
<!DOCTYPE svg PUBLIC "-//W3C//DTD SVG 1.1//EN" "http://www.w3.org/Graphics/SVG/1.1/DTD/svg11.dtd">
<svg version="1.1" id="Layer_1" xmlns="http://www.w3.org/2000/svg" xmlns:xlink="http://www.w3.org/1999/xlink" x="0px" y="0px"
	 width="24.482px" height="26.327px" viewBox="0 0 24.482 26.327" enable-background="new 0 0 24.482 26.327" xml:space="preserve">
<g>
	<g>
		<path fill="#A6A8AB" d="M10.1,19.201c-5.018,0-9.1-4.082-9.1-9.101C1,5.083,5.082,1,10.1,1c5.019,0,9.102,4.083,9.102,9.101
			C19.201,15.119,15.118,19.201,10.1,19.201z"/>
		<path fill="#231F20" d="M10.1,2c4.475,0,8.102,3.627,8.102,8.101c0,4.475-3.627,8.101-8.102,8.101c-4.473,0-8.1-3.626-8.1-8.101
			C2,5.627,5.627,2,10.1,2 M10.1,0C4.531,0,0,4.531,0,10.101s4.531,10.101,10.1,10.101c5.57,0,10.102-4.531,10.102-10.101
			S15.67,0,10.1,0L10.1,0z"/>
	</g>
	
		<rect x="13.397" y="19.052" transform="matrix(0.7071 0.7071 -0.7071 0.7071 20.4108 -7.3733)" fill="#231F20" width="11.415" height="3.795"/>
</g>
</svg>
